<svg xmlns="http://www.w3.org/2000/svg" width="452.977" height="689" viewBox="0 0 452.977 689">
  <g id="Group_2452" data-name="Group 2452" transform="translate(-733.511 -156)">
    <g id="White_box" data-name="White box" transform="translate(733.391 151.567)">
      <rect id="Rectangle_84" data-name="Rectangle 84" width="452.976" height="689" rx="5" transform="translate(0.121 4.433)" fill="#00125d"/>
    </g>
    <path id="Path_2437" data-name="Path 2437" d="M-18231-22753.32h450.338" transform="translate(18964.512 22966.32)" fill="none" stroke="#002886" stroke-width="1"/>
    <path id="Path_2438" data-name="Path 2438" d="M-18231-22745.66h419.455" transform="translate(18982.512 23127.404)" fill="none" stroke="#002886" stroke-width="1"/>
    <text id="BTC-USDC_Calculator" data-name="BTC-USDC Calculator" transform="translate(749.512 172)" fill="#fff" font-size="20" font-family="SegoeUI, Segoe UI" letter-spacing="-0.02em"><tspan x="0" y="22">BTC-USDC Calculator</tspan></text>
    <text id="BTC" transform="translate(1146.219 373.744)" fill="#005ea4" font-size="26" font-family="SegoeUI, Segoe UI" letter-spacing="-0.02em"><tspan x="-20.605" y="0">BTC</tspan></text>
    <path id="Path_2439" data-name="Path 2439" d="M4.987,0h409a5.258,5.258,0,0,1,4.987,5.492,5.258,5.258,0,0,1-4.987,5.492h-409A5.258,5.258,0,0,1,0,5.492,5.258,5.258,0,0,1,4.987,0Z" transform="translate(751.512 576.016)" fill="#002886"/>
    <text id="_100x" data-name="100x" transform="translate(1152.221 617.016)" fill="#005ea4" font-size="16" font-family="SegoeUI, Segoe UI" letter-spacing="-0.02em"><tspan x="-16.129" y="0">100x</tspan></text>
    <text id="_50x" data-name="50x" transform="translate(909.512 602.016)" fill="#005ea4" font-size="16" font-family="SegoeUI, Segoe UI" letter-spacing="-0.02em"><tspan x="-11.977" y="17">50x</tspan></text>
    <text id="_1x" data-name="1x" transform="translate(759.512 617.016)" fill="#005ea4" font-size="16" font-family="SegoeUI, Segoe UI" letter-spacing="-0.02em"><tspan x="-7.824" y="0">1x</tspan></text>
    <text id="_0.5" data-name="0.5" transform="translate(751.512 373)" fill="#fff" font-size="42" font-family="SegoeUI, Segoe UI"><tspan x="0" y="0">0.5</tspan></text>
    <text id="Exposure" transform="translate(751.512 325)" fill="#3da8f5" font-size="16" font-family="SegoeUI, Segoe UI" letter-spacing="-0.02em"><tspan x="0" y="0">Exposure</tspan></text>
    <text id="Max" transform="translate(1140.969 325)" fill="#3da8f5" font-size="16" font-family="SegoeUI, Segoe UI" letter-spacing="-0.02em" text-decoration="underline"><tspan x="0" y="0">Max</tspan></text>
    <text id="Leverage" transform="translate(751.512 551)" fill="#3da8f5" font-size="16" font-family="SegoeUI, Segoe UI" letter-spacing="-0.02em"><tspan x="0" y="0">Leverage</tspan></text>
    <g id="Group_2048" data-name="Group 2048" transform="translate(788.68 237)">
      <g id="Path_2257" data-name="Path 2257" transform="translate(45.239)" fill="#3da8f5">
        <path d="M 115.5312576293945 31.5 L 16.00000762939453 31.5 C 11.85980796813965 31.5 7.967408180236816 29.88771629333496 5.039841651916504 26.96014976501465 C 2.112291574478149 24.03258323669434 0.5000083446502686 20.14019966125488 0.5000083446502686 16 C 0.5000083446502686 11.85980033874512 2.112291574478149 7.967416763305664 5.039841651916504 5.039850234985352 C 7.967408180236816 2.112283229827881 11.85980796813965 0.5 16.00000762939453 0.5 L 115.5312576293945 0.5 C 119.6714553833008 0.5 123.5638427734375 2.112283229827881 126.4914093017578 5.039850234985352 C 129.4189758300781 7.967416763305664 131.0312652587891 11.85980033874512 131.0312652587891 16 C 131.0312652587891 20.14019966125488 129.4189758300781 24.03258323669434 126.4914093017578 26.96014976501465 C 123.5638427734375 29.88771629333496 119.6714553833008 31.5 115.5312576293945 31.5 Z" stroke="none"/>
        <path d="M 15.99999237060547 1 C 11.99335479736328 1 8.226516723632812 2.560272216796875 5.393386840820312 5.393400192260742 C 2.560256958007812 8.226528167724609 0.9999847412109375 11.99334526062012 0.9999847412109375 16 C 0.9999847412109375 20.00665473937988 2.560256958007812 23.77347183227539 5.393386840820312 26.60659980773926 C 8.226516723632812 29.43972778320312 11.99335479736328 31 15.99999237060547 31 L 115.5312423706055 31 C 119.5378952026367 31 123.3047180175781 29.43972778320312 126.1378402709961 26.60659980773926 C 128.9709777832031 23.77347183227539 130.53125 20.00665473937988 130.53125 16 C 130.53125 11.99334526062012 128.9709777832031 8.226528167724609 126.1378402709961 5.393400192260742 C 123.3047180175781 2.560272216796875 119.5378952026367 1 115.5312423706055 1 L 15.99999237060547 1 M 15.99999237060547 0 L 115.5312423706055 0 C 124.367805480957 0 131.53125 7.163436889648438 131.53125 16 C 131.53125 24.83656311035156 124.367805480957 32 115.5312423706055 32 L 15.99999237060547 32 C 7.163444519042969 32 -1.52587890625e-05 24.83656311035156 -1.52587890625e-05 16 C -1.52587890625e-05 7.163436889648438 7.163444519042969 0 15.99999237060547 0 Z" stroke="none" fill="#3da8f5"/>
      </g>
      <g id="Path_2347" data-name="Path 2347" transform="translate(158.239)" fill="none">
        <path d="M-8.819,0H120.521a16,16,0,0,1,0,32H-8.819a16,16,0,0,1-16-16A16,16,0,0,1-8.819,0Z" stroke="none"/>
        <path d="M -8.819343566894531 1 C -12.82598876953125 1 -16.59281921386719 2.560270309448242 -19.42594909667969 5.393396377563477 C -22.25907897949219 8.226520538330078 -23.8193359375 11.99335479736328 -23.8193359375 16 C -23.8193359375 20.00664520263672 -22.25907897949219 23.77347946166992 -19.42594909667969 26.60660362243652 C -16.59281921386719 29.43972969055176 -12.82598876953125 31 -8.819343566894531 31 L 120.5214920043945 31 C 124.5281372070312 31 128.2949676513672 29.43972969055176 131.1280975341797 26.60660362243652 C 133.9612121582031 23.77347946166992 135.521484375 20.00664520263672 135.521484375 16 C 135.521484375 11.99335479736328 133.9612121582031 8.226520538330078 131.1280975341797 5.393396377563477 C 128.2949676513672 2.560270309448242 124.5281372070312 1 120.5214920043945 1 L -8.819343566894531 1 M -8.819343566894531 0 L 120.5214920043945 0 C 129.3580474853516 0 136.521484375 7.163436889648438 136.521484375 16 C 136.521484375 24.83656311035156 129.3580474853516 32 120.5214920043945 32 L -8.819343566894531 32 C -17.6558837890625 32 -24.8193359375 24.83656311035156 -24.8193359375 16 C -24.8193359375 7.163436889648438 -17.6558837890625 0 -8.819343566894531 0 Z" stroke="none" fill="#3da8f5"/>
      </g>
      <text id="Short" transform="translate(226.5 21)" fill="#3da8f5" font-size="16" font-family="SegoeUI, Segoe UI" letter-spacing="-0.02em"><tspan x="-18.317" y="0">Short</tspan></text>
      <text id="Long" transform="translate(80 6)" fill="#fff" font-size="16" font-family="SegoeUI, Segoe UI" letter-spacing="-0.02em"><tspan x="-17.211" y="17">Long</tspan></text>
    </g>
    <path id="Path_2440" data-name="Path 2440" d="M-18231-22745.66h419.453" transform="translate(18982.512 23240.148)" fill="none" stroke="#002886" stroke-width="1"/>
    <path id="Path_2441" data-name="Path 2441" d="M-18231-22745.66h417.705" transform="translate(18982.512 23479.404)" fill="none" stroke="#002886" stroke-width="1"/>
    <text id="USDC" transform="translate(1138.498 486.488)" fill="#005ea4" font-size="26" font-family="SegoeUI, Segoe UI" letter-spacing="-0.02em"><tspan x="-32.221" y="0">USDC</tspan></text>
    <text id="_1000" data-name="$1000" transform="translate(751.512 485.744)" fill="#fff" font-size="42" font-family="SegoeUI, Segoe UI"><tspan x="0" y="0">$1000</tspan></text>
    <text id="_0.00" data-name="0.00" transform="translate(751.512 725)" fill="#005ea4" font-size="42" font-family="SegoeUI, Segoe UI"><tspan x="0" y="0">0.00</tspan></text>
    <text id="Margin" transform="translate(751.512 437)" fill="#3da8f5" font-size="16" font-family="SegoeUI, Segoe UI" letter-spacing="-0.02em"><tspan x="0" y="0">Margin</tspan></text>
    <text id="Liquidation_Price" data-name="Liquidation Price" transform="translate(751.512 677)" fill="#3da8f5" font-size="16" font-family="SegoeUI, Segoe UI" letter-spacing="-0.02em"><tspan x="0" y="0">Liquidation Price</tspan></text>
    <text id="Max-2" data-name="Max" transform="translate(1142.969 437.744)" fill="#3da8f5" font-size="16" font-family="SegoeUI, Segoe UI" letter-spacing="-0.02em" text-decoration="underline"><tspan x="0" y="0">Max</tspan></text>
    <text id="Max-3" data-name="Max" transform="translate(1139.219 677)" fill="#3da8f5" font-size="16" font-family="SegoeUI, Segoe UI" letter-spacing="-0.02em" text-decoration="underline"><tspan x="0" y="0">Max</tspan></text>
    <path id="Path_2442" data-name="Path 2442" d="M16,0H139.572a16,16,0,0,1,0,32H16A16,16,0,0,1,16,0Z" transform="translate(795.109 773.256)" fill="#3da8f5"/>
    <g id="Path_2443" data-name="Path 2443" transform="translate(751.09 564.016)" fill="#00125d">
      <path d="M 47.26171875 31.5 L 15.99999904632568 31.5 C 11.8597993850708 31.5 7.967409610748291 29.88772010803223 5.039849281311035 26.96015930175781 C 2.112279415130615 24.03259086608887 0.4999993741512299 20.14019966125488 0.4999993741512299 16 C 0.4999993741512299 11.85980033874512 2.112279415130615 7.967410087585449 5.039849281311035 5.039840221405029 C 7.967409610748291 2.112279891967773 11.8597993850708 0.5 15.99999904632568 0.5 L 47.26171875 0.5 C 51.40192031860352 0.5 55.29430770874023 2.112279891967773 58.22187805175781 5.039840221405029 C 61.14944076538086 7.967410087585449 62.76171875 11.85980033874512 62.76171875 16 C 62.76171875 20.14019966125488 61.14944076538086 24.03259086608887 58.22187805175781 26.96015930175781 C 55.29430770874023 29.88772010803223 51.40192031860352 31.5 47.26171875 31.5 Z" stroke="none"/>
      <path d="M 16 1 C 11.99335098266602 1 8.226520538330078 2.560270309448242 5.393398284912109 5.393400192260742 C 2.560268402099609 8.226520538330078 1 11.99334907531738 1 16 C 1 20.00664901733398 2.560268402099609 23.77347946166992 5.393398284912109 26.60659980773926 C 8.226520538330078 29.43972969055176 11.99335098266602 31 16 31 L 47.26171875 31 C 51.26837158203125 31 55.03519821166992 29.43972969055176 57.86832046508789 26.60659980773926 C 60.70145034790039 23.77347946166992 62.26171875 20.00664901733398 62.26171875 16 C 62.26171875 11.99334907531738 60.70145034790039 8.226520538330078 57.86832046508789 5.393400192260742 C 55.03519821166992 2.560270309448242 51.26837158203125 1 47.26171875 1 L 16 1 M 16 0 L 47.26171875 0 C 56.0982780456543 0 63.26171875 7.163440704345703 63.26171875 16 C 63.26171875 24.8365592956543 56.0982780456543 32 47.26171875 32 L 16 32 C 7.163440704345703 32 0 24.8365592956543 0 16 C 0 7.163440704345703 7.163440704345703 0 16 0 Z" stroke="none" fill="#005ea4"/>
    </g>
    <g id="Path_2444" data-name="Path 2444" transform="translate(966.68 773.256)" fill="none">
      <path d="M16,0H139.572a16,16,0,0,1,0,32H16A16,16,0,0,1,16,0Z" stroke="none"/>
      <path d="M 16 1 C 11.99334716796875 1 8.226516723632812 2.560279846191406 5.393386840820312 5.393400192260742 C 2.560272216796875 8.226520538330078 1 11.99336051940918 1 16 C 1 20.00664138793945 2.560272216796875 23.77347946166992 5.393386840820312 26.60659980773926 C 8.226516723632812 29.43972015380859 11.99334716796875 31 16 31 L 139.572265625 31 C 143.5789184570312 31 147.3457489013672 29.43972015380859 150.1788787841797 26.60659980773926 C 153.0119934082031 23.77347946166992 154.572265625 20.00664138793945 154.572265625 16 C 154.572265625 11.99336051940918 153.0119934082031 8.226520538330078 150.1788787841797 5.393400192260742 C 147.3457489013672 2.560279846191406 143.5789184570312 1 139.572265625 1 L 16 1 M 16 0 L 139.572265625 0 C 148.4088287353516 0 155.572265625 7.163440704345703 155.572265625 16 C 155.572265625 24.8365592956543 148.4088287353516 32 139.572265625 32 L 16 32 C 7.163436889648438 32 0 24.8365592956543 0 16 C 0 7.163440704345703 7.163436889648438 0 16 0 Z" stroke="none" fill="#005ea4"/>
    </g>
    <text id="Calculate" transform="translate(809.109 779.256)" fill="#fff" font-size="16" font-family="SegoeUI, Segoe UI" letter-spacing="-0.02em"><tspan x="-30.806" y="17">Calculate</tspan></text>
    <text id="_-" data-name="-" transform="translate(756.219 570.016)" fill="#005ea4" font-size="16" font-family="SegoeUI, Segoe UI" letter-spacing="-0.02em"><tspan x="-3.199" y="17">-</tspan></text>
    <text id="Reset" transform="translate(980.68 779.256)" fill="#005ea4" font-size="16" font-family="SegoeUI, Segoe UI" letter-spacing="-0.02em"><tspan x="-18.383" y="17">Reset</tspan></text>
    <g id="Path_2445" data-name="Path 2445" transform="translate(1023.09 170.679)" fill="none">
      <path d="M105.4,0h28a14,14,0,0,1,0,28h-28a14,14,0,0,1,0-28Z" stroke="none"/>
      <path d="M 105.404296875 1 C 101.9318695068359 1 98.66728210449219 2.352239608764648 96.21189880371094 4.807609558105469 C 93.75653076171875 7.262990951538086 92.404296875 10.5275707244873 92.404296875 14 C 92.404296875 17.47243118286133 93.75653076171875 20.73701095581055 96.21189880371094 23.19239044189453 C 98.66728210449219 25.64776039123535 101.9318695068359 27 105.404296875 27 L 133.400390625 27 C 136.8728332519531 27 140.1374053955078 25.64776039123535 142.5927734375 23.19239044189453 C 145.0481567382812 20.73701095581055 146.400390625 17.47243118286133 146.400390625 14 C 146.400390625 10.5275707244873 145.0481567382812 7.262990951538086 142.5927734375 4.807609558105469 C 140.1374053955078 2.352239608764648 136.8728332519531 1 133.400390625 1 L 105.404296875 1 M 105.404296875 0 L 133.400390625 0 C 141.1323852539062 0 147.400390625 6.268009185791016 147.400390625 14 C 147.400390625 21.73199081420898 141.1323852539062 28 133.400390625 28 L 105.404296875 28 C 97.67230224609375 28 91.404296875 21.73199081420898 91.404296875 14 C 91.404296875 6.268009185791016 97.67230224609375 0 105.404296875 0 Z" stroke="none" fill="#3da8f5"/>
    </g>
    <g id="Group_2049" data-name="Group 2049" transform="translate(11859.527 23278.535)">
      <g id="Group_638" data-name="Group 638" transform="translate(-10717.036 -23108.213) rotate(45)">
        <path id="Path_626" data-name="Path 626" d="M0,0V20.052" transform="translate(10.026 0)" fill="none" stroke="#3da8f5" stroke-width="3"/>
        <path id="Path_627" data-name="Path 627" d="M0,0V20.052" transform="translate(20.052 10.026) rotate(90)" fill="none" stroke="#3da8f5" stroke-width="3"/>
      </g>
    </g>
    <text id="USDC-2" data-name="USDC" transform="translate(1137.969 726)" fill="#005ea4" font-size="26" font-family="SegoeUI, Segoe UI" letter-spacing="-0.02em"><tspan x="-32.221" y="0">USDC</tspan></text>
    <text id="Last_Price:_50_000_USDC" data-name="Last Price: $50,000 USDC" transform="translate(949 677)" fill="#005ea4" font-size="16" font-family="SegoeUI, Segoe UI" letter-spacing="-0.02em"><tspan x="0" y="0">Last Price: $50,000 USDC</tspan></text>
    <text id="Available:_2000_USDC" data-name="Available: $2000 USDC" transform="translate(969.996 437.744)" fill="#005ea4" font-size="16" font-family="SegoeUI, Segoe UI" letter-spacing="-0.02em"><tspan x="0" y="0">Available: $2000 USDC</tspan></text>
  </g>
</svg>
