<?xml version="1.0" encoding="utf-8"?>
<!-- Generator: Adobe Illustrator 25.2.1, SVG Export Plug-In . SVG Version: 6.00 Build 0)  -->
<svg version="1.1" id="Layer_1" xmlns="http://www.w3.org/2000/svg" xmlns:xlink="http://www.w3.org/1999/xlink" x="0px" y="0px"
	 viewBox="0 0 317.8 35.7" style="enable-background:new 0 0 317.8 35.7;" xml:space="preserve">
<style type="text/css">
	.st0{fill:#FFFFFF;}
</style>
<g id="Group_231">
	<g>
		<g id="Group_8_11_">
			<g id="Group_5_11_">
				<g id="Group_3_11_">
					<path id="Path_9_11_" class="st0" d="M140.4,11.1v16h3.9V14.8h4.8v-3.6H140.4z"/>
					<path id="Path_10_11_" class="st0" d="M95.1,11.1h-8.7v16h3.9V14.8h4.8L95.1,11.1z"/>
					<path id="Path_11_11_" class="st0" d="M81.6,7.5h-8.7v3.6h4.8v16h3.9v-16h4.8V7.5H81.6z"/>
					<path id="Path_12_11_" class="st0" d="M117.7,14.2c1-0.1,1.9,0.4,2.4,1.2c0.3,0.4,0.4,0.9,0.4,1.5h3.7
						c-0.1-1.2-0.5-2.4-1.2-3.4c-1.3-1.6-3.3-2.5-5.4-2.4c-2.1,0-4.1,0.9-5.5,2.5c-2.3,3.5-2.3,8,0,11.5c1.4,1.6,3.4,2.5,5.5,2.5
						c2.1,0,4-0.9,5.4-2.5c0.7-1,1.2-2.2,1.2-3.4h-3.7c0,0.5-0.2,1-0.4,1.5c-0.6,0.8-1.5,1.2-2.4,1.2c-0.9,0-1.7-0.4-2.3-1
						c-0.8-1.2-1.2-2.6-1.1-4c-0.1-1.4,0.2-2.8,1.1-4C115.9,14.6,116.8,14.2,117.7,14.2z"/>
					<path id="Path_13_11_" class="st0" d="M132.2,11c-1.9,0-3.7,0.7-5,2c-1.6,1.7-2.4,4-2.3,6.3c-0.1,2.3,0.8,4.6,2.4,6.3
						c1.3,1.3,3.1,2,5,2c2,0.1,3.9-0.7,5.3-2.2c0.7-0.8,1.1-1.8,1.3-2.9h-3.6c-0.1,0.5-0.4,1-0.8,1.3c-0.6,0.6-1.5,0.8-2.3,0.8
						c-0.9,0-1.7-0.4-2.3-1c-0.8-0.8-1.2-2-1.1-3.1h10.5c0-0.3,0-1.1,0-1.1c0.2-1.9-0.3-3.9-1.4-5.5C136.6,12,134.4,10.9,132.2,11z
						 M128.7,17.7c0-0.9,0.3-1.8,0.8-2.5c0.6-0.8,1.6-1.3,2.6-1.2c0.9-0.1,1.8,0.3,2.4,0.9c0.7,0.8,1,1.7,1,2.7L128.7,17.7
						L128.7,17.7z"/>
					<path id="Path_14_11_" class="st0" d="M108.7,21.8L108.7,21.8v-4.4c0-1.1-0.1-2.2-0.5-3.2c-0.9-2.4-3.2-3.2-5.9-3.2
						c-3.5,0-6.3,1.6-6.5,5.1h3.7c0.1-1.5,1.1-2.2,2.9-2.2c2.2,0,2.7,1,2.7,2.5v1l-4.6,0.3c-3,0.2-5.3,1.9-5.3,4.9
						c0,2.6,2,4.9,5.7,4.9c1.9,0.1,3.7-0.8,4.8-2.4v2.1h4.5v-2.8h-1.4L108.7,21.8z M105,20.8c0,2.3-1.7,3.6-4,3.6
						c-1.1,0.1-2.1-0.8-2.2-1.9c0,0,0,0,0,0v0c0.1-1.2,1.1-2,2.2-2l4-0.3L105,20.8L105,20.8z"/>
				</g>
				<g id="Group_4_11_">
					<path id="Path_15_11_" class="st0" d="M64.6,0L34.3,17.5L64.6,35v-4.6L42.2,17.5L64.6,4.6V0z"/>
					<rect id="Rectangle_2_11_" x="30.3" class="st0" width="4" height="35"/>
					<path id="Path_16_11_" class="st0" d="M0,4.6l22.3,12.9L0,30.4V35l30.3-17.5L0,0V4.6z"/>
				</g>
			</g>
		</g>
	</g>
</g>
<g>
	<path class="st0" d="M173.4,27l-0.5-2.5c-1,1.7-3.4,3-5.8,3c-2.1,0-4.2-0.7-5.7-2.2c-2.2-2.1-2.8-5-2.8-8.8c0-3.4,0.5-6.5,2.8-8.8
		c1.5-1.5,3.6-2.3,5.7-2.3c2.4,0,4.6,0.8,6.1,2.4c1,1.1,1.7,2.4,1.8,4.1h-2.8c-0.1-1-0.4-1.7-1-2.3c-1-1.1-2.4-1.7-4.2-1.7
		c-1.4,0-2.9,0.6-3.9,1.6c-1.7,1.8-1.9,4.7-1.9,6.9c0,2.1,0.2,5.2,1.9,7c1,1,2.4,1.5,3.8,1.5c1.5,0,2.9-0.5,3.9-1.5
		c1.4-1.4,1.8-3.4,1.8-5.4h-5.7v-2.5h8.1V27H173.4z"/>
	<path class="st0" d="M189.8,25.6c-1.1,1.1-2.7,1.8-4.6,1.8s-3.5-0.7-4.6-1.8c-1.7-1.6-2.2-3.8-2.2-6.2s0.5-4.6,2.2-6.2
		c1.1-1.1,2.7-1.8,4.6-1.8s3.5,0.7,4.6,1.8c1.6,1.6,2.2,3.8,2.2,6.2S191.5,24,189.8,25.6z M188,14.7c-0.6-0.6-1.5-1.1-2.7-1.1
		c-1.2,0-2.1,0.4-2.7,1.1c-1.1,1.1-1.4,2.9-1.4,4.7s0.3,3.6,1.4,4.7c0.6,0.6,1.5,1.1,2.7,1.1c1.2,0,2.1-0.5,2.7-1.1
		c1.1-1.1,1.4-2.9,1.4-4.7S189.1,15.8,188,14.7z"/>
	<path class="st0" d="M201.7,27H199l-5.6-15.2h2.7l4.4,12.2l4.2-12.2h2.6L201.7,27z"/>
	<path class="st0" d="M222,20.2h-10.7c0,1.4,0.5,2.9,1.5,3.8c0.7,0.7,1.6,1.1,2.8,1.1c1.2,0,2.2-0.3,2.8-1c0.4-0.4,0.7-0.8,0.9-1.6
		h2.5c-0.2,1.5-1.1,2.9-2.3,3.8c-1.1,0.7-2.4,1.1-3.9,1.1c-2.1,0-3.9-0.9-5-2.3c-1.3-1.5-1.9-3.5-1.9-5.6c0-1.8,0.3-3.4,1.2-4.9
		c1.1-1.8,3.1-3.2,5.7-3.2c2,0,3.5,0.8,4.6,1.9c1.2,1.4,2,3.3,1.9,5.3L222,20.2z M218.5,15c-0.6-0.8-1.6-1.4-3-1.4
		c-2.8,0-4.1,2.2-4.2,4.5h8.1C219.4,16.9,219.1,15.8,218.5,15z"/>
	<path class="st0" d="M232.5,14.2c-1.2,0-2.2,0.5-2.9,1.2c-1.2,1.2-1.4,3.3-1.4,4.9V27h-2.5V11.8h2.2l0.2,2.7
		c0.8-1.9,2.6-2.8,4.5-2.8c0.4,0,0.8,0,1.2,0.1v2.5C233.5,14.2,233,14.2,232.5,14.2z"/>
	<path class="st0" d="M246.4,27v-9.6c0-2.3-0.9-3.6-3.3-3.6c-1.5,0-2.6,1-3.3,2.3c-0.5,1.1-0.5,2.7-0.5,3.9v7h-2.5V11.8h2.2l0.2,2.3
		c0.8-1.7,2.9-2.7,4.6-2.7c3.5,0,5.2,2.1,5.2,5.6v10H246.4z"/>
	<path class="st0" d="M264.6,27.2c-1.3,0-2.2-1-2.2-2.3h-0.1c-0.9,1.5-2.8,2.5-4.9,2.5c-3.5,0-5.2-2.3-5.2-4.7
		c0-1.9,1.3-4.5,5.4-4.7l4.6-0.3v-1.1c0-0.8-0.1-1.7-0.8-2.3c-0.5-0.5-1.3-0.8-2.5-0.8c-1.4,0-2.2,0.4-2.8,0.9
		c-0.5,0.5-0.8,1.1-0.8,1.8H253c0-1.4,0.5-2.4,1.3-3.2c1-1.1,2.8-1.6,4.7-1.6c2.9,0,4.6,1.3,5.3,2.9c0.3,0.7,0.5,1.5,0.5,2.3V24
		c0,0.8,0.3,1,0.8,1c0.3,0,0.7-0.1,0.7-0.1v1.9C265.8,27.1,265.3,27.2,264.6,27.2z M262.3,19.7l-4.1,0.2c-1.5,0.1-3.3,0.8-3.3,2.7
		c0,1.3,0.8,2.6,3,2.6c1.2,0,2.3-0.4,3.1-1.2c0.9-0.9,1.3-2.2,1.3-3.5V19.7z"/>
	<path class="st0" d="M279.5,27v-9.6c0-2.3-0.9-3.6-3.3-3.6c-1.5,0-2.6,1-3.3,2.3c-0.5,1.1-0.5,2.7-0.5,3.9v7h-2.5V11.8h2.2l0.2,2.3
		c0.8-1.7,2.9-2.7,4.6-2.7c3.5,0,5.2,2.1,5.2,5.6v10H279.5z"/>
	<path class="st0" d="M296.7,25.7c-1.1,1-2.5,1.6-4.4,1.6c-2.7,0-4.5-1.3-5.5-2.9c-0.8-1.2-1.3-2.8-1.3-5.1c0-2.3,0.5-3.9,1.3-5.1
		c1.1-1.6,2.8-2.9,5.5-2.9c1.8,0,3.3,0.6,4.3,1.6c1,1,1.7,2.2,1.8,3.9h-2.6c-0.1-1-0.5-1.8-1.1-2.4c-0.6-0.6-1.5-0.9-2.5-0.9
		c-1.2,0-2,0.4-2.6,1c-1.2,1-1.5,2.9-1.5,4.8s0.3,3.8,1.5,4.8c0.7,0.6,1.5,1,2.6,1c1,0,2-0.4,2.6-1c0.5-0.6,0.9-1.3,1-2.2h2.6
		C298.4,23.5,297.8,24.7,296.7,25.7z"/>
	<path class="st0" d="M314.3,20.2h-10.7c0,1.4,0.5,2.9,1.5,3.8c0.7,0.7,1.6,1.1,2.8,1.1c1.2,0,2.2-0.3,2.8-1
		c0.4-0.4,0.7-0.8,0.9-1.6h2.5c-0.2,1.5-1.1,2.9-2.3,3.8c-1.1,0.7-2.4,1.1-3.9,1.1c-2.1,0-3.9-0.9-5-2.3c-1.3-1.5-1.9-3.5-1.9-5.6
		c0-1.8,0.3-3.4,1.2-4.9c1.1-1.8,3.1-3.2,5.7-3.2c2,0,3.5,0.8,4.6,1.9c1.2,1.4,2,3.3,1.9,5.3L314.3,20.2z M310.8,15
		c-0.6-0.8-1.6-1.4-3-1.4c-2.8,0-4.1,2.2-4.2,4.5h8.1C311.7,16.9,311.4,15.8,310.8,15z"/>
</g>
</svg>
