<svg id="Layer_1" data-name="Layer 1" xmlns="http://www.w3.org/2000/svg" viewBox="0 0 299.21 35.67"><defs><style>.cls-1{fill:#fff;}</style></defs><g id="Group_232" data-name="Group 232"><g id="Group_8" data-name="Group 8"><g id="Group_5" data-name="Group 5"><g id="Group_3" data-name="Group 3"><path id="Path_9" data-name="Path 9" class="cls-1" d="M140.39,11.14v16h3.92V14.79h4.8V11.14Z"/><path id="Path_10" data-name="Path 10" class="cls-1" d="M95.12,11.14H86.39v16h3.92V14.79h4.8Z"/><path id="Path_11" data-name="Path 11" class="cls-1" d="M81.59,7.51h-8.7v3.63h4.8v16h3.9v-16h4.8V7.51Z"/><path id="Path_12" data-name="Path 12" class="cls-1" d="M117.65,14.24a2.75,2.75,0,0,1,2.42,1.17,3,3,0,0,1,.44,1.46h3.72A6.27,6.27,0,0,0,123,13.44,6.81,6.81,0,0,0,117.63,11a7.13,7.13,0,0,0-5.47,2.48,10.46,10.46,0,0,0,0,11.51,7.13,7.13,0,0,0,5.47,2.48A6.87,6.87,0,0,0,123,25a6.08,6.08,0,0,0,1.22-3.43H120.5a3.27,3.27,0,0,1-.44,1.46,2.79,2.79,0,0,1-2.42,1.17,3.15,3.15,0,0,1-2.3-1,5.82,5.82,0,0,1-1.06-4,6,6,0,0,1,1.06-4A3.1,3.1,0,0,1,117.65,14.24Z"/><path id="Path_13" data-name="Path 13" class="cls-1" d="M132.16,11a6.88,6.88,0,0,0-5,2,8.89,8.89,0,0,0-2.28,6.29,8.55,8.55,0,0,0,2.41,6.29,6.91,6.91,0,0,0,5,2,6.76,6.76,0,0,0,5.29-2.22,6.13,6.13,0,0,0,1.33-2.9H135.3a2.77,2.77,0,0,1-.75,1.33,2.9,2.9,0,0,1-2.3.75,3.3,3.3,0,0,1-2.33-1,4.24,4.24,0,0,1-1.15-3.1h10.54V19.33a8.79,8.79,0,0,0-1.37-5.49A6.7,6.7,0,0,0,132.16,11Zm-3.48,6.71a3.84,3.84,0,0,1,.82-2.46A3.24,3.24,0,0,1,132.13,14a3.13,3.13,0,0,1,2.39.91,4.17,4.17,0,0,1,1,2.74H128.7Z"/><path id="Path_14" data-name="Path 14" class="cls-1" d="M108.69,21.79h0V17.36a8.34,8.34,0,0,0-.47-3.17c-.9-2.37-3.21-3.21-5.89-3.21C98.81,11,96,12.55,95.8,16.1h3.66c.09-1.46,1.13-2.24,2.87-2.24,2.15,0,2.66,1,2.66,2.48v1l-4.63.34c-3,.22-5.33,1.94-5.33,4.93,0,2.57,2,4.94,5.69,4.94a5.44,5.44,0,0,0,4.78-2.37v2.13H110V24.55h-1.37Zm-3.7-1c0,2.33-1.66,3.61-4,3.61a2.08,2.08,0,0,1-2.24-1.91h0v-.05a2.2,2.2,0,0,1,2.25-2l4-.31v.69Z"/></g><g id="Group_4" data-name="Group 4"><path id="Path_15" data-name="Path 15" class="cls-1" d="M64.58,0,34.27,17.52,64.58,35V30.42L42.24,17.52,64.58,4.61Z"/><rect id="Rectangle_2" data-name="Rectangle 2" class="cls-1" x="30.31" width="3.98" height="35"/><path id="Path_16" data-name="Path 16" class="cls-1" d="M0,4.61,22.34,17.52,0,30.42V35L30.31,17.52,0,0Z"/></g></g></g></g><path class="cls-1" d="M172.19,17.58a6.67,6.67,0,0,1-4.92,1.67h-4.94V27h-2.52V7h7.43a6.6,6.6,0,0,1,5.09,1.81A6.13,6.13,0,0,1,173.86,13,6.21,6.21,0,0,1,172.19,17.58Zm-5-8.31h-4.86V17h4.89c2.68,0,4-1.24,4-3.93C171.26,10.49,169.67,9.27,167.19,9.27Z"/><path class="cls-1" d="M188.83,20.66H178.72a5.3,5.3,0,0,0,1.38,3.59,4.08,4.08,0,0,0,5.29.09,3.06,3.06,0,0,0,.84-1.56h2.35a5.3,5.3,0,0,1-2.2,3.53,6.59,6.59,0,0,1-3.65,1.08A6.09,6.09,0,0,1,178,25.24a8.09,8.09,0,0,1-1.78-5.31,8.74,8.74,0,0,1,1.1-4.58,6.12,6.12,0,0,1,5.4-3,5.74,5.74,0,0,1,4.35,1.84,7.36,7.36,0,0,1,1.81,5Zm-3.3-5a3.41,3.41,0,0,0-2.83-1.3c-2.6,0-3.87,2.12-3.93,4.21h7.63A5,5,0,0,0,185.53,15.69Z"/><path class="cls-1" d="M199.29,15a3.93,3.93,0,0,0-2.71,1.13c-1.16,1.11-1.3,3.08-1.3,4.58V27H192.9V12.72H195l.2,2.52a4.42,4.42,0,0,1,4.27-2.6,7.24,7.24,0,0,1,1.13.08v2.35A6.71,6.71,0,0,0,199.29,15Z"/><path class="cls-1" d="M214.24,26a5.6,5.6,0,0,1-3.93,1.45,5,5,0,0,1-4.16-2v7.77h-2.4V12.75h2.12l.17,1.86a5,5,0,0,1,4.27-2.23,5.45,5.45,0,0,1,4,1.56,8.44,8.44,0,0,1,2.06,5.93A8.42,8.42,0,0,1,214.24,26Zm-4.33-11.55a3.27,3.27,0,0,0-2.31.93A5.91,5.91,0,0,0,206,19.9a5.92,5.92,0,0,0,1.59,4.55,3.27,3.27,0,0,0,2.31.93c3.2,0,4-2.85,4-5.48S213.11,14.42,209.91,14.42Z"/><path class="cls-1" d="M232.07,20.66H222a5.3,5.3,0,0,0,1.38,3.59,4.08,4.08,0,0,0,5.29.09,3.14,3.14,0,0,0,.85-1.56h2.34a5.23,5.23,0,0,1-2.2,3.53A6.59,6.59,0,0,1,226,27.39a6.09,6.09,0,0,1-4.74-2.15,8.09,8.09,0,0,1-1.78-5.31,8.74,8.74,0,0,1,1.1-4.58,6.1,6.1,0,0,1,5.39-3,5.78,5.78,0,0,1,4.36,1.84,7.4,7.4,0,0,1,1.81,5Zm-3.31-5a3.39,3.39,0,0,0-2.83-1.3c-2.6,0-3.87,2.12-3.92,4.21h7.63A4.94,4.94,0,0,0,228.76,15.69Z"/><path class="cls-1" d="M240.68,27.22c-3.08,0-3.92-1.95-3.92-3.87V14.78H234V12.72h2.77V9.08l2.4-.57v4.21h4.24v2.06h-4.24v8.28c0,1.39.59,2,1.92,2a17.91,17.91,0,0,0,2.46-.25v2.06A10.34,10.34,0,0,1,240.68,27.22Z"/><path class="cls-1" d="M256.11,27l-.19-2.18a4.67,4.67,0,0,1-4.24,2.52c-3.25,0-4.89-1.95-4.89-5.26V12.72h2.4v9c0,2.15.79,3.42,3.05,3.42a3.25,3.25,0,0,0,2.38-1.07,5.78,5.78,0,0,0,1.18-4V12.72h2.4V27Z"/><path class="cls-1" d="M273.86,27.22A2,2,0,0,1,271.8,25h-.06a5.22,5.22,0,0,1-4.61,2.35c-3.28,0-4.91-2.21-4.91-4.41,0-1.84,1.18-4.24,5.08-4.47l4.35-.25V17.21a2.8,2.8,0,0,0-.73-2.17,3.24,3.24,0,0,0-2.35-.74,3.56,3.56,0,0,0-2.6.85,2.35,2.35,0,0,0-.7,1.73h-2.35a4.23,4.23,0,0,1,1.25-3,6.12,6.12,0,0,1,4.4-1.53c2.77,0,4.36,1.19,5,2.74A5.38,5.38,0,0,1,274,17.3v6.92c0,.77.31,1,.79,1a3.72,3.72,0,0,0,.62-.08v1.78A3.38,3.38,0,0,1,273.86,27.22Zm-2.21-7.1-3.84.23c-1.44.09-3.14.76-3.14,2.57,0,1.27.8,2.46,2.83,2.46a4,4,0,0,0,2.94-1.16A4.58,4.58,0,0,0,271.65,21Z"/><path class="cls-1" d="M282.17,27.19c-2.1,0-3-1.24-3-3.5V6.62h2.4V23.54c0,1,.31,1.47,1.3,1.47.79,0,1,0,1,0v2A6.26,6.26,0,0,1,282.17,27.19Z"/><path class="cls-1" d="M296.94,25.78a7.51,7.51,0,0,1-9.29,0,4.63,4.63,0,0,1-1.39-3.28h2.41a2.78,2.78,0,0,0,1.15,2.23,4.54,4.54,0,0,0,2.57.65,3.88,3.88,0,0,0,2.63-.79,2,2,0,0,0,.71-1.55c0-1.08-.76-1.84-2.23-2-.62-.08-2.24-.28-3.22-.42a3.73,3.73,0,0,1-3.51-3.85A4.1,4.1,0,0,1,288,13.94a5.83,5.83,0,0,1,4.21-1.59,5.7,5.7,0,0,1,4.55,1.81,4.08,4.08,0,0,1,1,2.74h-2.41a2.54,2.54,0,0,0-.82-1.78,3.37,3.37,0,0,0-2.34-.76,3.74,3.74,0,0,0-1.67.28,2.15,2.15,0,0,0-1.44,1.92c0,1.19.73,1.7,1.92,1.87.79.11,1.92.23,3.45.48a4.07,4.07,0,0,1,2.51,6.87Z"/></svg>