<svg id="Layer_1" data-name="Layer 1" xmlns="http://www.w3.org/2000/svg" viewBox="0 0 149.11 35.67"><defs><style>.cls-1{fill:#fff;}</style></defs><g id="Group_232" data-name="Group 232"><g id="Group_8" data-name="Group 8"><g id="Group_5" data-name="Group 5"><g id="Group_3" data-name="Group 3"><path id="Path_9" data-name="Path 9" class="cls-1" d="M140.39,11.14v16h3.92V14.79h4.8V11.14Z"/><path id="Path_10" data-name="Path 10" class="cls-1" d="M95.12,11.14H86.39v16h3.92V14.79h4.8Z"/><path id="Path_11" data-name="Path 11" class="cls-1" d="M81.59,7.51h-8.7v3.63h4.8v16h3.9v-16h4.8V7.51Z"/><path id="Path_12" data-name="Path 12" class="cls-1" d="M117.65,14.24a2.75,2.75,0,0,1,2.42,1.17,3,3,0,0,1,.44,1.46h3.72A6.27,6.27,0,0,0,123,13.44,6.81,6.81,0,0,0,117.63,11a7.13,7.13,0,0,0-5.47,2.48,10.46,10.46,0,0,0,0,11.51,7.13,7.13,0,0,0,5.47,2.48A6.87,6.87,0,0,0,123,25a6.08,6.08,0,0,0,1.22-3.43H120.5a3.27,3.27,0,0,1-.44,1.46,2.79,2.79,0,0,1-2.42,1.17,3.15,3.15,0,0,1-2.3-1,5.82,5.82,0,0,1-1.06-4,6,6,0,0,1,1.06-4A3.1,3.1,0,0,1,117.65,14.24Z"/><path id="Path_13" data-name="Path 13" class="cls-1" d="M132.16,11a6.88,6.88,0,0,0-5,2,8.89,8.89,0,0,0-2.28,6.29,8.55,8.55,0,0,0,2.41,6.29,6.91,6.91,0,0,0,5,2,6.76,6.76,0,0,0,5.29-2.22,6.13,6.13,0,0,0,1.33-2.9H135.3a2.77,2.77,0,0,1-.75,1.33,2.9,2.9,0,0,1-2.3.75,3.3,3.3,0,0,1-2.33-1,4.24,4.24,0,0,1-1.15-3.1h10.54V19.33a8.79,8.79,0,0,0-1.37-5.49A6.7,6.7,0,0,0,132.16,11Zm-3.48,6.71a3.84,3.84,0,0,1,.82-2.46A3.24,3.24,0,0,1,132.13,14a3.13,3.13,0,0,1,2.39.91,4.17,4.17,0,0,1,1,2.74H128.7Z"/><path id="Path_14" data-name="Path 14" class="cls-1" d="M108.69,21.79h0V17.36a8.34,8.34,0,0,0-.47-3.17c-.9-2.37-3.21-3.21-5.89-3.21C98.81,11,96,12.55,95.8,16.1h3.66c.09-1.46,1.13-2.24,2.87-2.24,2.15,0,2.66,1,2.66,2.48v1l-4.63.34c-3,.22-5.33,1.94-5.33,4.93,0,2.57,2,4.94,5.69,4.94a5.44,5.44,0,0,0,4.78-2.37v2.13H110V24.55h-1.37Zm-3.7-1c0,2.33-1.66,3.61-4,3.61a2.08,2.08,0,0,1-2.24-1.91h0v-.05a2.2,2.2,0,0,1,2.25-2l4-.31v.69Z"/></g><g id="Group_4" data-name="Group 4"><path id="Path_15" data-name="Path 15" class="cls-1" d="M64.58,0,34.27,17.52,64.58,35V30.42L42.24,17.52,64.58,4.61Z"/><rect id="Rectangle_2" data-name="Rectangle 2" class="cls-1" x="30.31" width="3.98" height="35"/><path id="Path_16" data-name="Path 16" class="cls-1" d="M0,4.61,22.34,17.52,0,30.42V35L30.31,17.52,0,0Z"/></g></g></g></g></svg>